# AST/ASF file generated using VICON BodyLanguage
# -----------------------------------------------
:version 1.10
:name VICON
:units
  mass 1.0
  length 0.45
  angle deg
:documentation
   .ast/.asf automatically generated from VICON data using
   VICON BodyBuilder and BodyLanguage model FoxedUp or BRILLIANT.MOD
:root
   order TX TY TZ RX RY RZ
   axis XYZ
   position 0 0 0  
   orientation 0 0 0 
:bonedata
  begin
     id 1 
     name lhipjoint
     direction 0.660183 -0.676772 0.325788 
     length 2.75133 
     axis 0 0 0  XYZ
  end
  begin
     id 2 
     name lfemur
     direction 0.34202 -0.939693 0  
     length 7.70317  
     axis 0 0 20  XYZ
    dof rx ry rz
    limits (-160.0 20.0)
           (-70.0 70.0)
           (-60.0 70.0)
  end
  begin
     id 3 
     name ltibia
     direction 0.342105 -0.939662 0   
     length 7.18701   
     axis 0 0 20   XYZ
    dof rx
    limits (-10.0 170.0)
  end
  begin
     id 4 
     name lfoot
     direction 0.14163 -0.389126 0.910232   
     length 2.41719   
     axis -90 7.62852e-016 20   XYZ
    dof rx rz
    limits (-45.0 90.0)
           (-70.0 20.0)
  end
  begin
     id 5 
     name ltoes
     direction 1.53533e-011 -4.21926e-011 1   
     length 1.18611   
     axis -90 7.62852e-016 20   XYZ
    dof rx
    limits (-90.0 20.0)
  end
  begin
     id 6 
     name rhipjoint
     direction -0.6658 -0.67229 0.323631   
     length 2.76968  
     axis 0 0 0  XYZ 
  end
  begin
     id 7 
     name rfemur
     direction -0.34202 -0.939693 0   
     length 7.92547   
     axis 0 0 -20   XYZ
    dof rx ry rz
    limits (-160.0 20.0)
           (-70.0 70.0)
           (-70.0 60.0)
  end
  begin
     id 8 
     name rtibia
     direction -0.342022 -0.939692 0   
     length 7.22641   
     axis 0 0 -20   XYZ
    dof rx
    limits (-10.0 170.0)
 end
 begin
     id 9 
     name rfoot
     direction -0.105675 -0.29034 0.951071   
     length 2.48149  
     axis -90 -7.62852e-016 -20   XYZ
    dof rx rz
    limits (-45.0 90.0)
           (-20.0 70.0)
  end
  begin
     id 10 
     name rtoes
     direction -1.5349e-011 -4.21859e-011 1   
     length 1.23343   
     axis -90 -7.62852e-016 -20   XYZ
    dof rx
    limits (-90.0 20.0)
  end
  begin
     id 11 
     name lowerback
     direction 0.0104173 0.993624 -0.112266   
     length 2.00527   
     axis 0 0 0   XYZ
    dof rx ry rz
    limits (-20.0 45.0)
           (-30.0 30.0)
           (-30.0 30.0)
  end
  begin
     id 12 
     name upperback
     direction 0.00733149 0.999856 -0.0152913   
     length 2.01385   
     axis 0 0 0   XYZ
    dof rx ry rz
    limits (-20.0 45.0)
           (-30.0 30.0)
           (-30.0 30.0)
  end
  begin
     id 13 
     name thorax
     direction 0.0026304 0.999318 0.036841   
     length 2.03734   
     axis 0 0 0   XYZ
    dof rx ry rz
    limits (-20.0 45.0)
           (-30.0 30.0)
           (-30.0 30.0)
  end
  begin
     id 14 
     name lowerneck
     direction 0.0293154 0.998757 0.0403082   
     length 1.65303   
     axis 0 0 0   XYZ
    dof rx ry rz
    limits (-20.0 45.0)
           (-30.0 30.0)
           (-30.0 30.0)
  end
  begin
     id 15 
     name upperneck
     direction -0.0376619 0.998184 -0.0470083   
     length 1.60926   
     axis 0 0 0   XYZ
    dof rx ry rz
    limits (-20.0 45.0)
           (-30.0 30.0)
           (-30.0 30.0)
  end
  begin
     id 16
     name head
     direction -0.0170133 0.999635 -0.0209778  
     length 1.73625  
     axis 0 0 0   XYZ
    dof rx ry rz
    limits (-20.0 45.0)
           (-30.0 30.0)
           (-30.0 30.0)
  end
  begin
     id 17 
     name lclavicle
     direction 0.919857 0.39181 -0.0186333  
     length 3.75313  
     axis 0 0 0   XYZ
    dof ry rz
    limits (-20.0 10.0)
           (0.0 20.0)
  end
  begin
     id 18 
     name lhumerus
     direction 1 -4.48988e-011 1.44029e-027   
     length 5.49313   
     axis 180 -30 -90   XYZ
    dof rx ry rz
    limits (-60.0 90.0)
           (-90.0 90.0)
           (-90.0 90.0)
  end
  begin
     id 19
     name lradius
     direction 1 -4.48924e-011 7.46281e-027   
     length 3.29037   
     axis 180 -30 -90   XYZ
    dof rx
    limits (-10.0 170.0)
  end
  begin
     id 20
     name lwrist
     direction 1 -4.48955e-011 2.19879e-026   
     length 1.64519   
     axis -1.34358e-014 90 90   XYZ
    dof ry
    limits (-180.0 0.0)
 end
  begin
     id 21 
     name lhand
     direction 1 -4.48978e-011 4.39747e-026   
     length 0.729656   
     axis -2.80598e-014 90 90   XYZ
    dof rx rz
    limits (-90.0 90.0)
           (-45.0 45.0)
  end
  begin
     id 22 
     name lfingers
     direction 1 -4.49071e-011 8.79411e-026   
     length 0.588268   
     axis -5.61193e-014 90 90   XYZ
    dof rx
    limits (0.0 90.0)
  end
  begin
     id 23
     name lthumb
     direction 0.707107 -6.34817e-011 0.707107   
     length 0.844638   
     axis -90 45 -9.86923e-015   XYZ
    dof rx rz
    limits (-45.0 45.0)
           (-45.0 45.0)
  end
  begin
     id 24 
     name rclavicle
     direction -0.919898 0.388279 0.0550233   
     length 3.7171  
     axis 0 0 0   XYZ 
    dof ry rz
    limits (-10.0 20.0)
           (-20.0 0.0)
  end
  begin
     id 25 
     name rhumerus
     direction -1 -4.48968e-011 9.98372e-028  
     length 5.23684   
     axis 180 30 90   XYZ
    dof rx ry rz
    limits (-90.0 60.0)
           (-90.0 90.0)
           (-90.0 90.0)
  end
  begin
     id 26 
     name rradius
     direction -1 -4.48956e-011 1.01023e-026   
     length 3.38251   
     axis 180 30 90   XYZ
    dof rx
    limits (-10.0 170.0)
  end
  begin
     id 27 
     name rwrist
     direction -1 -4.4892e-011 2.19886e-026   
     length 1.69126   
     axis -1.34358e-014 -90 -90   XYZ
    dof ry
    limits (-180.0 0.0)
  end
  begin
     id 28
     name rhand
     direction -1 -4.49024e-011 4.39727e-026   
     length 0.691454   
     axis -2.80598e-014 -90 -90   XYZ
    dof rx rz
    limits (-90.0 90.0)
           (-45.0 45.0)
  end
  begin
     id 29
     name rfingers
     direction -1 -4.49097e-011 8.79388e-026   
     length 0.557468   
     axis -5.61193e-014 -90 -90   XYZ
    dof rx
    limits (0.0 90.0)
  end
  begin
     id 30
     name rthumb
     direction -0.707107 -6.34938e-011 0.707107   
     length 0.800416   
     axis -90 -45 9.86923e-015   XYZ
    dof rx rz
    limits (-45.0 45.0)
           (-45.0 45.0)
  end
:hierarchy
  begin
    root lhipjoint rhipjoint lowerback
    lhipjoint lfemur
    lfemur ltibia
    ltibia lfoot
    lfoot ltoes
    rhipjoint rfemur
    rfemur rtibia
    rtibia rfoot
    rfoot rtoes
    lowerback upperback
    upperback thorax
    thorax lowerneck lclavicle rclavicle
    lowerneck upperneck
    upperneck head
    lclavicle lhumerus
    lhumerus lradius
    lradius lwrist
    lwrist lhand lthumb
    lhand lfingers
    rclavicle rhumerus
    rhumerus rradius
    rradius rwrist
    rwrist rhand rthumb
    rhand rfingers
  end

#!OML:ASF H:\BabyWalks\Project 1\Capture day 1\Session 1\baby.ASF
:FULLY-SPECIFIED
:DEGREES
221
root -28.5366 17.3445 -2.26945 -20.6802 81.8153 -28.4399
lowerback 18.1001 -1.92596 0.967413
upperback 5.04293 -1.62449 5.89218
thorax -4.55925 -0.658414 6.10708
lowerneck 0.139412 4.29746 2.0125
upperneck -11.6376 4.97379 -12.2724
head -3.07785 3.02517 -4.19102
rclavicle 1.70955e-014 -1.66979e-014
rhumerus -49.1049 20.3002 -82.6311
rradius 39.5292
rwrist 3.39362
rhand -8.99395 -16.6849
rfingers 7.12502
rthumb 16.9523 -45.9651
lclavicle 1.70955e-014 -1.66979e-014
lhumerus -54.6941 -1.17946 89.8239
lradius 45.3986
lwrist -5.28793
lhand 8.26005 14.6002
lfingers 7.12502
lthumb 33.4742 41.4991
rfemur -14.1723 15.8802 23.7295
rtibia 33.6396
rfoot -24.6151 11.6148
rtoes 4.89137
lfemur -26.456 4.45678 -10.2072
ltibia 62.325
lfoot -23.0624 -27.0302
ltoes -6.81852
222
root -28.4206 17.3879 -2.27282 -19.9568 81.9198 -27.9118
lowerback 18.0936 -1.85473 0.925095
upperback 5.00325 -1.55074 5.77467
thorax -4.60818 -0.623199 5.98798
lowerneck 0.0702704 4.25876 2.00689
upperneck -11.6804 4.92648 -12.1967
head -3.08507 2.99903 -4.16562
rclavicle -5.56597e-015 -2.3059e-014
rhumerus -49.4809 20.4902 -82.9638
rradius 40.1509
rwrist 2.66981
rhand -9.22868 -16.5179
rfingers 7.12502
rthumb 16.7263 -45.8173
lclavicle -5.56597e-015 -2.3059e-014
lhumerus -55.484 -1.09975 89.7937
lradius 45.2893
lwrist -4.99127
lhand 9.85088 14.5265
lfingers 7.12502
lthumb 34.9849 41.0861
rfemur -13.4913 15.8611 23.5759
rtibia 32.6364
rfoot -24.1731 11.6644
rtoes 4.71604
lfemur -27.1377 4.11686 -10.5145
ltibia 61.1828
lfoot -23.8011 -25.865
ltoes -7.41603
223
root -28.3037 17.4308 -2.27704 -19.3099 82.0298 -27.4629
lowerback 18.0778 -1.78344 0.88712
upperback 4.97372 -1.47709 5.65139
thorax -4.64129 -0.588285 5.8594
lowerneck -0.0103272 4.21046 1.99889
upperneck -11.7297 4.86759 -12.1002
head -3.09383 2.9663 -4.13318
rclavicle -2.3059e-014 2.38542e-015
rhumerus -49.8589 20.6513 -83.2797
rradius 40.7838
rwrist 1.95802
rhand -9.4636 -16.2681
rfingers 7.12502
rthumb 16.5001 -45.5865
lclavicle -2.3059e-014 2.38542e-015
lhumerus -56.2379 -1.09307 89.7572
lradius 45.2372
lwrist -4.70965
lhand 11.4448 14.585
lfingers 7.12502
lthumb 36.4953 40.7783
rfemur -12.811 15.8094 23.4284
rtibia 31.6282
rfoot -23.6614 11.7414
rtoes 4.54023
lfemur -27.7816 3.75606 -10.8125
ltibia 59.9119
lfoot -24.4689 -24.6323
ltoes -7.78783
224
root -28.1863 17.4727 -2.28198 -18.7206 82.1447 -27.0726
lowerback 18.0593 -1.71153 0.850036
upperback 4.95221 -1.40307 5.52179
thorax -4.66438 -0.553342 5.72307
lowerneck -0.105714 4.15532 1.99071
upperneck -11.7769 4.80137 -11.9855
head -3.10056 2.92867 -4.09458
rclavicle -5.96354e-015 3.81667e-014
rhumerus -50.2342 20.776 -83.5706
rradius 41.4212
rwrist 1.2586
rhand -9.66508 -15.9456
rfingers 7.12502
rthumb 16.3061 -45.28
lclavicle -5.96354e-015 3.81667e-014
lhumerus -56.9574 -1.16064 89.7204
lradius 45.2481
lwrist -4.3942
lhand 12.8869 14.5863
lfingers 7.12502
lthumb 37.8591 40.4237
rfemur -12.1236 15.7279 23.2861
rtibia 30.5962
rfoot -23.0687 11.8463
rtoes 4.39918
lfemur -28.3813 3.38203 -11.0995
ltibia 58.5133
lfoot -25.0599 -23.3439
ltoes -8.04221
225
root -28.0681 17.5138 -2.28751 -18.1458 82.2587 -26.7039
lowerback 18.0417 -1.6381 0.813802
upperback 4.9302 -1.32767 5.38279
thorax -4.68857 -0.517821 5.57594
lowerneck -0.210115 4.09698 1.98261
upperneck -11.8165 4.73299 -11.852
head -3.10416 2.88855 -4.04981
rclavicle -8.34896e-015 -1.90833e-014
rhumerus -50.6079 20.8556 -83.8352
rradius 42.0469
rwrist 0.580057
rhand -9.81677 -15.5645
rfingers 7.12502
rthumb 16.1601 -44.9108
lclavicle -8.34896e-015 -1.90833e-014
lhumerus -57.6563 -1.30553 89.6907
lradius 45.3264
lwrist -4.02508
lhand 14.1977 14.6323
lfingers 7.12502
lthumb 39.0959 40.1248
rfemur -11.4509 15.6177 23.1456
rtibia 29.5773
rfoot -22.437 11.9702
rtoes 4.27308
lfemur -28.9431 3.0077 -11.376
ltibia 57.0098
lfoot -25.575 -22.0247
ltoes -8.28643
226
root -27.9495 17.5539 -2.29366 -17.5084 82.3621 -26.2816
lowerback 18.0199 -1.55791 0.76974
upperback 4.90965 -1.24613 5.2323
thorax -4.70928 -0.479493 5.41947
lowerneck -0.326771 4.03766 1.97748
upperneck -11.8446 4.66577 -11.7004
head -3.10261 2.84728 -3.99943
rclavicle 5.1684e-015 4.92986e-014
rhumerus -50.965 20.8807 -84.0642
rradius 42.6504
rwrist -0.0777696
rhand -9.89117 -15.1522
rfingers 7.12502
rthumb 16.0884 -44.5044
lclavicle 5.1684e-015 4.92986e-014
lhumerus -58.3272 -1.51942 89.6651
lradius 45.4736
lwrist -3.58152
lhand 15.41 14.8512
lfingers 7.12502
lthumb 40.2374 40.0052
rfemur -10.8029 15.4831 22.9984
rtibia 28.5815
rfoot -21.7664 12.1295
rtoes 4.2211
lfemur -29.4668 2.64553 -11.6478
ltibia 55.4168
lfoot -26.0221 -20.6834
ltoes -8.30278
227
root -27.8301 17.5934 -2.30007 -16.8119 82.4567 -25.81
lowerback 17.9995 -1.47417 0.714849
upperback 4.88453 -1.1629 5.07068
thorax -4.73536 -0.440428 5.2572
lowerneck -0.45267 3.98219 1.97726
upperneck -11.8567 4.60626 -11.5326
head -3.09448 2.80798 -3.9444
rclavicle -3.10104e-014 1.66979e-014
rhumerus -51.3051 20.8527 -84.2592
rradius 43.2205
rwrist -0.716142
rhand -9.87548 -14.7443
rfingers 7.12502
rthumb 16.1036 -44.0952
lclavicle -3.10104e-014 1.66979e-014
lhumerus -58.9755 -1.78578 89.6347
lradius 45.6895
lwrist -3.05222
lhand 16.4665 15.0883
lfingers 7.12502
lthumb 41.2302 39.9311
rfemur -10.1835 15.3283 22.8476
rtibia 27.6165
rfoot -21.0811 12.3032
rtoes 4.22041
lfemur -29.9514 2.29931 -11.9125
ltibia 53.7468
lfoot -26.3998 -19.3535
ltoes -8.34085
228
root -27.7106 17.6314 -2.30652 -16.0128 82.5432 -25.2502
lowerback 17.9674 -1.38465 0.63774
upperback 4.8595 -1.07767 4.89873
thorax -4.75466 -0.400607 5.09588
lowerneck -0.582178 3.92948 1.98584
upperneck -11.8636 4.55175 -11.3552
head -3.08381 2.7701 -3.88781
rclavicle -2.62396e-014 -5.96354e-014
rhumerus -51.6137 20.7703 -84.4146
rradius 43.7516
rwrist -1.33857
rhand -9.75988 -14.3761
rfingers 7.12502
rthumb 16.2149 -43.718
lclavicle -2.62396e-014 -5.96354e-014
lhumerus -59.598 -2.09351 89.5953
lradius 45.9802
lwrist -2.47876
lhand 17.3618 15.344
lfingers 7.12502
lthumb 42.07 39.9106
rfemur -9.60451 15.1521 22.6882
rtibia 26.6997
rfoot -20.4139 12.4755
rtoes 4.21553
lfemur -30.4066 1.97003 -12.1731
ltibia 52.0191
lfoot -26.7038 -18.0618
ltoes -8.27881
229
root -27.5905 17.6676 -2.31298 -15.1168 82.6061 -24.5959
lowerback 17.9307 -1.28774 0.53826
upperback 4.83831 -0.987871 4.71683
thorax -4.76712 -0.358656 4.93569
lowerneck -0.71142 3.88342 2.00055
upperneck -11.8695 4.50725 -11.1661
head -3.0723 2.73638 -3.82881
rclavicle 1.98785e-015 -1.66979e-014
rhumerus -51.8842 20.6411 -84.5332
rradius 44.2319
rwrist -1.94334
rhand -9.54703 -14.0744
rfingers 7.12502
rthumb 16.4198 -43.3995
lclavicle 1.98785e-015 -1.66979e-014
lhumerus -60.1868 -2.43338 89.5434
lradius 46.3209
lwrist -1.87626
lhand 18.1163 15.6011
lfingers 7.12502
lthumb 42.7764 39.9256
rfemur -9.06113 14.9667 22.5282
rtibia 25.8483
rfoot -19.783 12.6491
rtoes 4.20532
lfemur -30.8131 1.66701 -12.4236
ltibia 50.2547
lfoot -26.9536 -16.8225
ltoes -8.17332
230
root -27.47 17.701 -2.31923 -14.1225 82.6488 -23.8508
lowerback 17.8862 -1.18643 0.413299
upperback 4.81604 -0.898041 4.52484
thorax -4.77597 -0.316793 4.77934
lowerneck -0.837666 3.84403 2.02214
upperneck -11.8727 4.47264 -10.9662
head -3.05995 2.7068 -3.76789
rclavicle 7.15625e-015 -1.66979e-014
rhumerus -52.1217 20.4754 -84.6251
rradius 44.658
rwrist -2.52393
rhand -9.26166 -13.8512
rfingers 7.12502
rthumb 16.6945 -43.1533
lclavicle 7.15625e-015 -1.66979e-014
lhumerus -60.7489 -2.79232 89.4716
lradius 46.7128
lwrist -1.27434
lhand 18.7472 15.8262
lfingers 7.12502
lthumb 43.3662 39.9414
rfemur -8.56676 14.7859 22.3645
rtibia 25.0758
rfoot -19.1917 12.816
rtoes 4.22943
lfemur -31.1772 1.37988 -12.6604
ltibia 48.4798
lfoot -27.1451 -15.6588
ltoes -8.0796
231
root -27.3487 17.7303 -2.32528 -13.0483 82.6552 -23.0193
lowerback 17.831 -1.07693 0.259436
upperback 4.80263 -0.803417 4.32613
thorax -4.76929 -0.27266 4.63112
lowerneck -0.98974 3.81085 2.02045
upperneck -11.5735 4.5055 -10.4474
head -3.30836 2.66753 -4.00034
rclavicle -1.94809e-014 -1.82882e-014
rhumerus -52.3199 20.2829 -84.6881
rradius 45.0324
rwrist -3.07724
rhand -8.90455 -13.7191
rfingers 7.12502
rthumb 17.0383 -42.9919
lclavicle -1.94809e-014 -1.82882e-014
lhumerus -61.2781 -3.16227 89.3799
lradius 47.1507
lwrist -0.681197
lhand 19.2722 16.0427
lfingers 7.12502
lthumb 43.8565 39.9789
rfemur -8.10947 14.6179 22.206
rtibia 24.3981
rfoot -18.667 12.9733
rtoes 4.22664
lfemur -31.478 1.10982 -12.8754
ltibia 46.7248
lfoot -27.282 -14.5811
ltoes -7.93154
232
root -27.2268 17.7566 -2.33078 -11.9586 82.6351 -22.1669
lowerback 17.7686 -0.964529 0.0764882
upperback 4.7937 -0.710164 4.12515
thorax -4.75322 -0.229142 4.49758
lowerneck -1.08198 3.78325 2.04115
upperneck -11.6074 4.48466 -10.2319
head -3.30724 2.64695 -3.92482
rclavicle 5.96354e-015 1.59028e-014
rhumerus -52.4827 20.076 -84.7278
rradius 45.3437
rwrist -3.57501
rhand -8.51139 -13.6587
rfingers 7.12502
rthumb 17.4167 -42.8984
lclavicle 5.96354e-015 1.59028e-014
lhumerus -61.7778 -3.53422 89.2697
lradius 47.632
lwrist -0.115985
lhand 19.7063 16.2061
lfingers 7.12502
lthumb 44.2614 39.9908
rfemur -7.69664 14.4697 22.0572
rtibia 23.8283
rfoot -18.2026 13.1123
rtoes 4.18723
lfemur -31.7393 0.848715 -13.0666
ltibia 45.0219
lfoot -27.3416 -13.612
ltoes -7.86461
233
root -27.104 17.7781 -2.33601 -10.9017 82.5768 -21.3344
lowerback 17.6928 -0.84734 -0.131192
upperback 4.79584 -0.614667 3.92495
thorax -4.71779 -0.184537 4.37849
lowerneck -1.15433 3.75983 2.05169
upperneck -11.6588 4.4695 -9.99946
head -3.31605 2.62989 -3.84316
rclavicle -1.19271e-014 -4.37326e-015
rhumerus -52.6057 19.8627 -84.7455
rradius 45.591
rwrist -4.00239
rhand -8.10799 -13.6621
rfingers 7.12502
rthumb 17.8049 -42.867
lclavicle -1.19271e-014 -4.37326e-015
lhumerus -62.2411 -3.89929 89.1407
lradius 48.1517
lwrist 0.408297
lhand 20.0487 16.3781
lfingers 7.12502
lthumb 44.5805 40.041
rfemur -7.32104 14.3543 21.923
rtibia 23.3662
rfoot -17.7857 13.2501
rtoes 4.15933
lfemur -31.9393 0.586374 -13.2199
ltibia 43.4036
lfoot -27.3218 -12.7525
ltoes -7.76141
234
root -26.9807 17.7949 -2.34074 -9.97266 82.4841 -20.6135
lowerback 17.6016 -0.726734 -0.363254
upperback 4.81293 -0.517528 3.73439
thorax -4.65784 -0.139112 4.28329
lowerneck -1.20527 3.73834 2.05078
upperneck -11.7322 4.45667 -9.75418
head -3.33681 2.61506 -3.75685
rclavicle 1.8487e-014 2.34566e-014
rhumerus -52.6734 19.6478 -84.7338
rradius 45.7541
rwrist -4.33722
rhand -7.71293 -13.7079
rfingers 7.12502
rthumb 18.185 -42.8778
lclavicle 1.8487e-014 2.34566e-014
lhumerus -62.648 -4.26033 89.0052
lradius 48.6909
lwrist 0.917077
lhand 20.3116 16.5561
lfingers 7.12502
lthumb 44.8253 40.1242
rfemur -6.98109 14.2773 21.8135
rtibia 23.0112
rfoot -17.3978 13.3909
rtoes 4.14554
lfemur -32.0882 0.328399 -13.3298
ltibia 41.9009
lfoot -27.1989 -12.0146
ltoes -7.57777
